:SAMPLES-PER-SECOND 30
:FRAME-RANGE 1-1086
:FULLY-SPECIFIED
:DEGREES
815
root  55.4573 38.7606 -108.51 14.6766 -64.776 -5.14648
RightUpLeg  -3.5208 -12.9735 -0.534567
RightLeg  16.4961 -12.1139 -2.83993
RightFoot  -19.3167 0.516333 9.27187
RightToes  1.21801e-010 1.2921e-014 -6.02303e-014
Spine  -0.0375841 5.45338 11.8145
Spine1  5.89755 8.67526 -13.7468
HEad  14.3459 22.5165 -7.90131
LeftShoulder1  0.680684 0.821694 -21.2634
LeftArm  -16.7527 3.35129 -49.3987
LeftForeArm  10.5968 -69.621 -31.9304
LeftHand  0.010224 6.07929 6.08939
RightShoulder  2.35285 8.46088 13.1317
RightArm  20.1323 51.0117 57.1007
RightForeArm  -13.4997 23.2313 5.7301
RightHand  0.0248706 -2.38987 1.49883
LeftUpLeg  -32.9782 -15.3768 5.82853
LeftLeg  22.5786 -2.927 -1.00593
LeftFoot  -0.125587 0.0546281 -0.504781
LeftToes  3.79492e-011 -8.60219e-011 1.56273e-011
816
root  55.2361 38.7656 -108.516 14.5575 -63.2146 -4.18231
RightUpLeg  -3.44196 -12.8173 -0.47504
RightLeg  15.7781 -13.7791 -2.61005
RightFoot  -19.3548 0.528168 9.39957
RightToes  1.21801e-010 1.2921e-014 -6.02303e-014
Spine  0.251635 5.33295 11.9696
Spine1  5.79215 8.6387 -14.0963
HEad  13.8767 22.2619 -8.48494
LeftShoulder1  0.769984 0.508035 -21.3918
LeftArm  -16.887 2.92641 -49.9743
LeftForeArm  9.65697 -68.7821 -30.3407
LeftHand  -0.015403 5.62457 4.87405
RightShoulder  2.37393 8.90756 12.5159
RightArm  18.8302 51.3115 56.1479
RightForeArm  -13.2142 22.9777 5.74209
RightHand  0.0329954 -2.34614 1.78362
LeftUpLeg  -33.7355 -16.4269 5.94901
LeftLeg  22.5416 -3.35308 -1.19799
LeftFoot  -0.175766 0.0539398 -0.500867
LeftToes  3.79492e-011 -8.60219e-011 1.56273e-011
817
root  55.005 38.7601 -108.535 14.2643 -62.1393 -3.09613
RightUpLeg  -3.48883 -12.9031 -0.565421
RightLeg  15.3418 -14.8678 -2.44453
RightFoot  -19.4608 0.545967 9.53652
RightToes  1.21801e-010 1.2921e-014 -6.02303e-014
Spine  0.6216 5.46965 11.7605
Spine1  5.53576 8.82846 -14.2888
HEad  13.7261 21.553 -8.57549
LeftShoulder1  0.759727 0.584942 -21.8184
LeftArm  -16.1482 2.32174 -49.9887
LeftForeArm  8.58763 -68.2989 -29.5775
LeftHand  -0.0130408 5.62645 5.60159
RightShoulder  2.29 8.36426 12.7177
RightArm  18.9608 52.1887 56.6521
RightForeArm  -12.4086 22.0289 5.9659
RightHand  0.0420404 -2.04609 1.88026
LeftUpLeg  -34.304 -17.1334 5.90925
LeftLeg  22.445 -3.69179 -1.34486
LeftFoot  -0.33046 0.0540615 -0.508822
LeftToes  3.79492e-011 -8.60219e-011 1.56273e-011
818
root  54.7771 38.7392 -108.565 13.9059 -61.0751 -2.0675
RightUpLeg  -3.52672 -12.9323 -0.588176
RightLeg  15.1403 -15.9627 -2.47975
RightFoot  -19.6912 0.577261 9.7211
RightToes  1.21801e-010 1.2921e-014 -6.02303e-014
Spine  1.08863 5.43213 11.476
Spine1  5.32493 8.87169 -14.5587
HEad  13.2544 21.1288 -8.74591
LeftShoulder1  0.7224 0.721898 -21.8557
LeftArm  -15.6331 1.93837 -50.0112
LeftForeArm  8.2771 -68.1749 -29.394
LeftHand  -0.0158975 5.54046 5.97657
RightShoulder  2.26162 8.31187 12.5446
RightArm  17.5898 52.6097 56.8333
RightForeArm  -11.3791 21.5011 6.11324
RightHand  0.0476096 -2.01858 2.05432
LeftUpLeg  -34.8493 -17.7467 5.81727
LeftLeg  22.5993 -4.08669 -1.53693
LeftFoot  -0.578543 0.055406 -0.534731
LeftToes  3.79492e-011 -8.60219e-011 1.56273e-011
819
root  54.5639 38.6738 -108.518 13.6017 -60.1944 -1.03754
RightUpLeg  -3.87762 -13.4873 -0.801425
RightLeg  15.5448 -16.3068 -2.6243
RightFoot  -20.2072 0.633464 9.92127
RightToes  1.21801e-010 1.2921e-014 -6.02303e-014
Spine  1.12544 5.48189 11.6171
Spine1  5.35782 9.04052 -15.1351
HEad  12.9268 20.6348 -8.85797
LeftShoulder1  0.761819 0.583108 -21.8801
LeftArm  -14.8485 1.39404 -49.9426
LeftForeArm  7.11976 -67.5853 -28.5112
LeftHand  -0.0181725 5.5171 5.43889
RightShoulder  2.26636 8.31557 12.5829
RightArm  15.4851 52.7761 56.5213
RightForeArm  -10.0225 21.21 6.13312
RightHand  0.0531568 -2.00269 2.23473
LeftUpLeg  -35.616 -18.5654 5.67638
LeftLeg  23.1033 -4.12839 -1.59988
LeftFoot  -1.04795 0.0455493 -0.385186
LeftToes  3.79492e-011 -8.60219e-011 1.56273e-011
820
root  54.3162 38.6976 -108.668 14.5372 -61.0521 -1.1153
RightUpLeg  -4.56743 -11.63 0.108172
RightLeg  15.0679 -17.3974 -3.42846
RightFoot  -19.9761 0.619785 9.98593
RightToes  1.21801e-010 1.2921e-014 -6.02303e-014
Spine  1.17554 6.38576 10.4689
Spine1  5.41842 9.97233 -14.7548
HEad  12.5226 20.1861 -9.07826
LeftShoulder1  0.76806 0.570938 -21.9903
LeftArm  -13.9779 0.904807 -49.8083
LeftForeArm  5.53227 -66.9924 -27.7378
LeftHand  -0.0165645 5.51434 6.23493
RightShoulder  2.25014 8.30885 12.4404
RightArm  13.6828 53.1692 56.6165
RightForeArm  -8.63857 20.482 6.37943
RightHand  0.0605204 -1.99523 2.48439
LeftUpLeg  -36.2384 -17.6798 6.17184
LeftLeg  23.2672 -4.0236 -1.56277
LeftFoot  -1.37228 0.0610173 -0.627501
LeftToes  3.79492e-011 -8.60219e-011 1.56273e-011
821
root  54.0754 38.6247 -108.629 13.8634 -59.2634 -0.113708
RightUpLeg  -4.23081 -11.9765 -2.68125e-005
RightLeg  15.2993 -18.818 -3.57045
RightFoot  -20.4953 0.687077 10.299
RightToes  1.21801e-010 1.2921e-014 -6.02303e-014
Spine  1.11677 6.03394 10.1119
Spine1  5.93334 9.58596 -14.4788
HEad  12.2409 19.3186 -9.0533
LeftShoulder1  0.873614 0.181001 -21.857
LeftArm  -13.526 0.282373 -49.8353
LeftForeArm  4.1968 -65.8762 -26.1987
LeftHand  -0.0355165 4.95591 3.11694
RightShoulder  2.19887 8.10308 12.3277
RightArm  11.7888 53.379 56.6976
RightForeArm  -7.12097 20.0852 6.4387
RightHand  0.0601489 -2.08685 2.55106
LeftUpLeg  -36.8307 -19.789 6.34523
LeftLeg  23.8599 -3.74054 -1.47696
LeftFoot  -1.84918 0.0657136 -0.700379
LeftToes  3.79492e-011 -8.60219e-011 1.56273e-011
822
root  53.8553 38.5416 -108.532 13.0359 -56.9177 1.05304
RightUpLeg  -3.77832 -13.0748 -0.461649
RightLeg  15.6406 -20.0262 -3.36024
RightFoot  -21.0893 0.763349 10.6071
RightToes  1.21801e-010 1.2921e-014 -6.02303e-014
Spine  1.60006 5.22476 9.98128
Spine1  5.57162 8.67108 -14.4268
HEad  12.1716 18.5763 -9.01838
LeftShoulder1  0.812013 0.435225 -22.2067
LeftArm  -12.4588 -0.378679 -49.5908
LeftForeArm  1.72262 -64.6817 -24.8558
LeftHand  -0.0406043 4.83354 3.75178
RightShoulder  2.17238 7.99705 12.2673
RightArm  10.6153 53.4876 57.0944
RightForeArm  -5.24937 19.0455 6.88934
RightHand  0.0593498 -1.94279 2.68979
LeftUpLeg  -37.485 -22.2176 6.30264
LeftLeg  24.522 -3.64397 -1.48276
LeftFoot  -2.18902 0.0495049 -0.446004
LeftToes  3.79492e-011 -8.60219e-011 1.56273e-011
823
root  53.5952 38.5217 -108.517 13.1945 -56.1965 1.24084
RightUpLeg  -3.50008 -12.5578 -0.225709
RightLeg  15.3583 -21.1111 -3.35987
RightFoot  -21.1061 0.780746 10.7924
RightToes  1.21801e-010 1.2921e-014 -6.02303e-014
Spine  1.91526 5.21804 9.69122
Spine1  5.31282 8.65329 -14.411
HEad  12.5027 17.5526 -8.72339
LeftShoulder1  0.925037 0.0135349 -22.0064
LeftArm  -12.9428 -0.194225 -49.4277
LeftForeArm  0.488308 -63.5809 -23.6278
LeftHand  -0.0383444 4.84492 3.22608
RightShoulder  2.1767 8.01735 12.2715
RightArm  9.86003 53.0607 57.7843
RightForeArm  -3.51843 17.6841 7.62479
RightHand  0.0540304 -2.07121 2.53636
LeftUpLeg  -37.7644 -22.6165 6.47739
LeftLeg  24.9453 -3.88995 -1.6403
LeftFoot  -2.72153 0.0487595 -0.429247
LeftToes  3.79492e-011 -8.60219e-011 1.56273e-011
824
root  53.3313 38.5271 -108.467 13.3338 -55.7116 1.43115
RightUpLeg  -3.22814 -12.2621 -0.135176
RightLeg  15.113 -21.8863 -3.27081
RightFoot  -20.8491 0.762093 10.8405
RightToes  1.21801e-010 1.2921e-014 -6.02303e-014
Spine  1.7767 5.19744 9.61245
Spine1  5.58734 8.71356 -14.606
HEad  12.7672 16.1835 -8.38281
LeftShoulder1  0.979598 -0.169336 -22.1044
LeftArm  -13.6334 -0.376866 -48.9244
LeftForeArm  -0.606103 -62.3374 -22.3451
LeftHand  -0.0366645 5.02275 4.33139
RightShoulder  2.23408 8.13753 12.605
RightArm  8.24341 52.5314 58.9261
RightForeArm  -1.08403 15.7394 8.63348
RightHand  0.0499987 -2.10967 2.21717
LeftUpLeg  -37.7997 -22.8489 6.52348
LeftLeg  25.1195 -4.05916 -1.74123
LeftFoot  -3.19306 0.0363876 -0.228781
LeftToes  3.79492e-011 -8.60219e-011 1.56273e-011
825
root  53.0767 38.5786 -108.39 12.9608 -55.8527 2.13873
RightUpLeg  -3.02562 -12.5101 -0.53638
RightLeg  14.9858 -21.2861 -3.19438
RightFoot  -20.5339 0.770418 11.2884
RightToes  1.21801e-010 1.2921e-014 -6.02303e-014
Spine  1.72216 5.40031 9.15155
Spine1  5.94401 9.0082 -14.6577
HEad  12.9975 14.1227 -8.11975
LeftShoulder1  0.940588 -0.0215194 -22.1885
LeftArm  -13.3539 -0.358594 -48.1488
LeftForeArm  -1.50755 -61.6306 -21.7013
LeftHand  -0.0334393 5.06112 3.23874
RightShoulder  2.2976 8.24668 13.0109
RightArm  3.74064 52.319 60.5474
RightForeArm  4.8398 12.7211 9.5356
RightHand  0.0528048 -1.67886 1.96707
LeftUpLeg  -37.4229 -23.5405 6.41555
LeftLeg  24.6665 -3.31339 -1.32783
LeftFoot  -3.51104 0.0422066 -0.307659
LeftToes  3.79492e-011 -8.60219e-011 1.56273e-011
826
root  52.8202 38.636 -108.294 13.2448 -56.217 2.06561
RightUpLeg  -2.94562 -12.7741 -0.503561
RightLeg  15.0123 -20.3418 -3.23527
RightFoot  -19.9745 0.758051 11.8063
RightToes  1.21801e-010 1.2921e-014 -6.02303e-014
Spine  1.45543 5.6954 9.23589
Spine1  6.35854 9.42065 -14.8349
HEad  13.3915 11.2781 -7.77105
LeftShoulder1  0.925535 0.0176314 -22.0596
LeftArm  -13.8926 -0.619651 -47.8162
LeftForeArm  -2.35236 -59.6446 -19.9129
LeftHand  -0.039431 4.7634 3.05156
RightShoulder  2.39504 8.46679 13.517
RightArm  -0.153616 52.2996 62.194
RightForeArm  9.96878 9.62499 9.91929
RightHand  0.0423016 -1.5177 1.53719
LeftUpLeg  -36.9933 -23.6124 6.56372
LeftLeg  24.3682 -2.96776 -1.13537
LeftFoot  -4.07063 0.0479633 -0.36911
LeftToes  3.79492e-011 -8.60219e-011 1.56273e-011
